<?xml version="1.0" encoding="UTF-8" standalone="no"?>
<svg width="535px" height="89px" viewBox="0 0 535 89" version="1.1" xmlns="http://www.w3.org/2000/svg" xmlns:xlink="http://www.w3.org/1999/xlink">
    <!-- Generator: Sketch 3.8.2 (29753) - http://www.bohemiancoding.com/sketch -->
    <title>Group</title>
    <desc>Created with Sketch.</desc>
    <defs>
        <polygon id="path-1" points="0 68.8484359 46 68.8484359 46 0 0 0"></polygon>
    </defs>
    <g id="Web" stroke="none" stroke-width="1" fill="none" fill-rule="evenodd">
        <g id="Desktop-HD-home-scroll-Copy-6" transform="translate(-326.000000, -158.000000)">
            <g id="Group" transform="translate(326.000000, 158.000000)">
                <g id="Page-1" opacity="0.86485541">
                    <path d="M42.3318966,30.5151026 C45.2068966,30.5151026 46,32.6774957 46,35.3313419 L46,64.0321966 C46,66.6860427 45.2068966,68.8484359 42.3318966,68.8484359 C39.4568966,68.8484359 38.6637931,66.6860427 38.6637931,64.0321966 L38.6637931,37.1005726 L7.3362069,37.1005726 L7.3362069,64.0321966 C7.3362069,66.6860427 6.54310345,68.8484359 3.66810345,68.8484359 C0.793103448,68.8484359 0,66.6860427 0,64.0321966 L0,35.3313419 C0,32.6774957 0.793103448,30.5151026 3.66810345,30.5151026 C6.54310345,30.5151026 7.3362069,32.6774957 7.3362069,35.3313419 L7.3362069,30.416812 L38.6637931,30.416812 L38.6637931,35.3313419 C38.6637931,32.6774957 39.4568966,30.5151026 42.3318966,30.5151026 L42.3318966,30.5151026 Z" id="Fill-1" fill="#000000"></path>
                    <path d="M25.9741379,1.96581197 L45.2068966,31.9444444 C45.6034483,32.7307692 45.7025862,33.4188034 45.7025862,34.008547 C45.7025862,35.974359 44.1163793,37.3504274 42.3318966,37.3504274 C40.8448276,37.3504274 39.2586207,36.465812 38.3663793,34.4017094 L23,11.5982906 L7.63362069,34.4017094 C6.74137931,36.465812 5.15517241,37.3504274 3.66810345,37.3504274 C1.88362069,37.3504274 0.297413793,35.974359 0.297413793,34.008547 C0.297413793,33.4188034 0.396551724,32.7307692 0.793103448,31.9444444 L20.0258621,1.96581197 C20.6206897,0.58974359 21.7112069,0 23,0 C24.2887931,0 25.3793103,0.58974359 25.9741379,1.96581197" id="Fill-3" fill="#000000"></path>
                    <mask id="mask-2" fill="white">
                        <use xlink:href="#path-1"></use>
                    </mask>
                    <g id="Clip-6"></g>
                    <polygon id="Fill-5" fill="#000000" mask="url(#mask-2)" points="3.68733621 68.8484359 42.2555603 68.8484359 42.2555603 62.0663846 3.68733621 62.0663846"></polygon>
                </g>
                <path d="M74.244,64.688 C74.244,67.334 75.322,69 77.674,69 C80.026,69 81.104,67.334 81.104,64.688 L81.104,45.088 C81.104,34.7 86.592,24.9 96.49,24.9 C100.802,24.9 103.938,26.664 105.8,30.976 C106.682,32.936 108.054,33.818 109.426,33.818 C111.288,33.818 112.954,32.838 112.954,30.29 C112.954,29.702 112.758,29.016 112.464,28.33 C109.328,21.568 103.056,19.02 96.882,19.02 C89.434,19.02 83.064,23.92 81.104,27.644 L81.104,24.312 C81.104,21.666 80.026,20 77.674,20 C75.322,20 74.244,21.666 74.244,24.312 L74.244,64.688 Z M150.586,19.02 C134.808,19.02 126.772,30.29 126.772,44.5 C126.772,58.71 134.808,69.98 150.586,69.98 C159.7,69.98 163.816,66.746 167.344,63.12 C168.618,61.748 169.206,60.376 169.206,59.298 C169.206,57.338 167.932,56.358 166.266,56.358 C165.286,56.358 164.208,56.848 163.228,58.122 C160.386,61.65 156.074,64.1 150.586,64.1 C138.924,64.1 133.632,55.476 133.632,44.5 C133.632,33.524 138.924,24.9 150.586,24.9 C156.074,24.9 160.386,27.35 163.228,30.878 C164.208,32.152 165.286,32.642 166.266,32.642 C167.932,32.642 169.206,31.662 169.206,29.702 C169.206,28.624 168.618,27.252 167.344,25.88 C163.816,22.254 159.7,19.02 150.586,19.02 L150.586,19.02 Z M191.452,64.688 C191.452,67.334 192.53,69 194.882,69 C197.234,69 198.312,67.334 198.312,64.688 L198.312,46.95 C198.312,33.916 203.8,24.9 213.404,24.9 C221.44,24.9 224.282,29.408 224.282,39.698 L224.282,64.688 C224.282,67.334 225.36,69 227.712,69 C230.064,69 231.142,67.334 231.142,64.688 L231.142,38.62 C231.142,24.802 225.262,19.02 213.992,19.02 C207.132,19.02 200.762,23.43 198.312,27.644 L198.312,4.712 C198.312,2.066 197.234,0.4 194.882,0.4 C192.53,0.4 191.452,2.066 191.452,4.712 L191.452,64.688 Z M252.996,60.964 C257.112,66.55 263.09,69.98 273.184,69.98 C285.63,69.98 293.176,64.002 293.176,54.104 C293.176,45.578 283.474,42.834 274.262,41.364 C267.108,40.188 260.64,39.11 260.64,33.72 C260.64,28.82 264.756,24.9 272.106,24.9 C277.006,24.9 280.828,26.37 283.572,30.486 C284.65,32.152 286.022,32.74 287.198,32.74 C288.962,32.74 290.334,31.466 290.334,29.506 C290.334,28.624 290.04,27.644 289.256,26.664 C284.944,20.882 279.652,19.02 272.106,19.02 C262.894,19.02 253.78,23.92 253.78,33.72 C253.78,43.03 262.404,45.48 270.734,46.852 C279.064,48.224 286.316,49.302 286.316,54.888 C286.316,61.65 280.828,64.1 273.184,64.1 C264.462,64.1 261.228,60.278 258.582,56.456 C257.7,55.182 256.328,54.594 255.152,54.594 C253.388,54.594 251.722,55.77 251.722,57.73 C251.722,58.612 252.114,59.788 252.996,60.964 L252.996,60.964 Z M319.44,62.434 C322.38,66.354 326.79,69.098 332.18,69.784 L332.18,63.904 C323.85,62.63 319.44,54.986 319.44,44.5 C319.44,34.014 323.85,26.272 332.18,25.096 L332.18,19.216 C326.496,19.902 321.596,22.94 319.44,26.37 L319.44,24.312 C319.44,21.666 318.362,20 316.01,20 C313.658,20 312.58,21.666 312.58,24.312 L312.58,84.288 C312.58,86.934 313.658,88.6 316.01,88.6 C318.362,88.6 319.44,86.934 319.44,84.288 L319.44,62.434 Z M349.526,44.5 C349.526,54.79 345.312,62.532 337.276,63.904 L337.276,69.784 C350.604,68.608 356.386,57.534 356.386,44.5 C356.386,29.114 349.232,20.294 337.276,19.216 L337.276,25.096 C345.312,26.566 349.526,34.21 349.526,44.5 L349.526,44.5 Z M390.49,29.996 L390.49,43.912 C390.49,46.362 391.274,48.224 393.43,48.224 C395.586,48.224 396.37,46.362 396.37,43.912 L396.37,29.996 L408.424,36.954 C409.502,37.542 410.482,37.934 411.364,37.934 C412.246,37.934 413.03,37.542 413.618,36.562 C413.912,36.072 414.01,35.68 414.01,35.19 C414.01,33.916 412.932,32.74 411.364,31.858 L399.31,24.9 L411.364,17.942 C412.932,17.06 414.01,15.884 414.01,14.61 C414.01,14.12 413.912,13.728 413.618,13.238 C413.03,12.258 412.246,11.866 411.364,11.866 C410.482,11.866 409.502,12.258 408.424,12.846 L396.37,19.804 L396.37,5.888 C396.37,3.438 395.586,1.576 393.43,1.576 C391.274,1.576 390.49,3.438 390.49,5.888 L390.49,19.804 L378.436,12.846 C377.358,12.258 376.378,11.866 375.496,11.866 C374.614,11.866 373.83,12.258 373.242,13.238 C372.948,13.728 372.85,14.12 372.85,14.61 C372.85,15.884 373.928,17.06 375.496,17.942 L387.55,24.9 L375.496,31.858 C373.928,32.74 372.85,33.916 372.85,35.19 C372.85,35.68 372.948,36.072 373.242,36.562 C373.83,37.542 374.614,37.934 375.496,37.934 C376.378,37.934 377.358,37.542 378.436,36.954 L390.49,29.996 Z M438.804,64.688 C438.804,67.334 439.882,69 442.234,69 C444.586,69 445.664,67.334 445.664,64.688 L445.664,45.088 C445.664,34.7 451.152,24.9 461.05,24.9 C465.362,24.9 468.498,26.664 470.36,30.976 C471.242,32.936 472.614,33.818 473.986,33.818 C475.848,33.818 477.514,32.838 477.514,30.29 C477.514,29.702 477.318,29.016 477.024,28.33 C473.888,21.568 467.616,19.02 461.442,19.02 C453.994,19.02 447.624,23.92 445.664,27.644 L445.664,24.312 C445.664,21.666 444.586,20 442.234,20 C439.882,20 438.804,21.666 438.804,24.312 L438.804,64.688 Z M529.552,25.782 C530.434,24.802 530.826,23.822 530.826,22.94 C530.826,21.274 529.552,20 527.788,20 C526.808,20 525.632,20.392 524.652,21.568 L504.464,42.834 L504.464,4.712 C504.464,2.066 503.386,0.4 501.034,0.4 C498.682,0.4 497.604,2.066 497.604,4.712 L497.604,64.688 C497.604,67.334 498.682,69 501.034,69 C503.386,69 504.464,67.334 504.464,64.688 L504.464,51.948 L512.696,43.422 L528.474,66.844 C529.454,68.314 530.728,69 531.904,69 C533.57,69 534.942,67.824 534.942,65.864 C534.942,65.08 534.648,64.1 533.962,63.12 L517.302,38.522 L529.552,25.782 Z" id="-rchsp*rk" fill="#262626"></path>
            </g>
        </g>
    </g>
</svg>